<?xml version="1.0" encoding="UTF-8" standalone="no"?><svg xmlns="http://www.w3.org/2000/svg" xmlns:xlink="http://www.w3.org/1999/xlink" clip-rule="evenodd" stroke-miterlimit="4.00" viewBox="0 0 1920 1080"><desc>SVG generated by Keynote</desc><defs></defs><g transform="matrix(1.00, 0.00, -0.00, -1.00, 0.0, 1080.0)"><path d="M 0.0 1080.0 L 1920.0 1080.0 L 1920.0 0.0 L 0.0 0.0 Z M 0.0 1080.0 " fill="#FEFFFF"></path><image xlink:href="../../A3CBCE8D-01FB-465C-98EC-1F83E930F573/assets/E49E4F0E52E211EE344807518415CD48.png" width="142.00" height="142.00" transform="matrix(1.00, 0.00, -0.00, -1.00, 1760.0, 150.0)"></image><text xml:space="preserve" font-family="Helvetica-LightOblique" font-style="italic" font-size="31.0" fill="#000000" transform="matrix(1.00, 0.00, -0.00, -1.00, 821.0, 19.0)">v</text><text xml:space="preserve" font-family="Helvetica-LightOblique" font-style="italic" font-size="31.0" fill="#000000" transform="matrix(1.00, 0.00, -0.00, -1.00, 836.5, 19.0)">o</text><text xml:space="preserve" font-family="Helvetica-LightOblique" font-style="italic" font-size="31.0" fill="#000000" transform="matrix(1.00, 0.00, -0.00, -1.00, 853.7, 19.0)">u</text><text xml:space="preserve" font-family="Helvetica-LightOblique" font-style="italic" font-size="31.0" fill="#000000" transform="matrix(1.00, 0.00, -0.00, -1.00, 871.0, 19.0)">t</text><text xml:space="preserve" font-family="Helvetica-LightOblique" font-style="italic" font-size="31.0" fill="#000000" transform="matrix(1.00, 0.00, -0.00, -1.00, 879.6, 19.0)">i</text><text xml:space="preserve" font-family="Helvetica-LightOblique" font-style="italic" font-size="31.0" fill="#000000" transform="matrix(1.00, 0.00, -0.00, -1.00, 886.5, 19.0)">l</text><text xml:space="preserve" font-family="Helvetica-LightOblique" font-style="italic" font-size="31.0" fill="#000000" transform="matrix(1.00, 0.00, -0.00, -1.00, 893.4, 19.0)">a</text><text xml:space="preserve" font-family="Helvetica-LightOblique" font-style="italic" font-size="31.0" fill="#000000" transform="matrix(1.00, 0.00, -0.00, -1.00, 910.6, 19.0)">d</text><text xml:space="preserve" font-family="Helvetica-LightOblique" font-style="italic" font-size="31.0" fill="#000000" transform="matrix(1.00, 0.00, -0.00, -1.00, 929.5, 19.0)">@</text><text xml:space="preserve" font-family="Helvetica-LightOblique" font-style="italic" font-size="31.0" fill="#000000" transform="matrix(1.00, 0.00, -0.00, -1.00, 954.3, 19.0)">g</text><text xml:space="preserve" font-family="Helvetica-LightOblique" font-style="italic" font-size="31.0" fill="#000000" transform="matrix(1.00, 0.00, -0.00, -1.00, 973.3, 19.0)">m</text><text xml:space="preserve" font-family="Helvetica-LightOblique" font-style="italic" font-size="31.0" fill="#000000" transform="matrix(1.00, 0.00, -0.00, -1.00, 999.1, 19.0)">a</text><text xml:space="preserve" font-family="Helvetica-LightOblique" font-style="italic" font-size="31.0" fill="#000000" transform="matrix(1.00, 0.00, -0.00, -1.00, 1016.3, 19.0)">i</text><text xml:space="preserve" font-family="Helvetica-LightOblique" font-style="italic" font-size="31.0" fill="#000000" transform="matrix(1.00, 0.00, -0.00, -1.00, 1023.2, 19.0)">l</text><text xml:space="preserve" font-family="Helvetica-LightOblique" font-style="italic" font-size="31.0" fill="#000000" transform="matrix(1.00, 0.00, -0.00, -1.00, 1030.1, 19.0)">.</text><text xml:space="preserve" font-family="Helvetica-LightOblique" font-style="italic" font-size="31.0" fill="#000000" transform="matrix(1.00, 0.00, -0.00, -1.00, 1038.7, 19.0)">c</text><text xml:space="preserve" font-family="Helvetica-LightOblique" font-style="italic" font-size="31.0" fill="#000000" transform="matrix(1.00, 0.00, -0.00, -1.00, 1055.9, 19.0)">o</text><text xml:space="preserve" font-family="Helvetica-LightOblique" font-style="italic" font-size="31.0" fill="#000000" transform="matrix(1.00, 0.00, -0.00, -1.00, 1073.2, 19.0)">m</text><g><clipPath id="clip-20"><path d="M 820.0 15.1 L 1099.0 15.1 L 1099.0 18.7 L 820.0 18.7 Z M 820.0 15.1 "></path></clipPath><g clip-path="url(#clip-20)"><path d="M 6.1 37.8 L 284.1 37.8 " fill="none" stroke="#000000" stroke-width="1.55" stroke-miterlimit="0.00" transform="matrix(1.00, 0.00, 0.00, -1.00, 814.9, 54.7)"></path></g></g><text xml:space="preserve" font-family="Helvetica-Light" font-size="112.0" fill="#000000" transform="matrix(1.00, 0.00, -0.00, -1.00, 645.0, 870.0)">O</text><text xml:space="preserve" font-family="Helvetica-Light" font-size="112.0" fill="#000000" transform="matrix(1.00, 0.00, -0.00, -1.00, 732.1, 870.0)">k</text><text xml:space="preserve" font-family="Helvetica-Light" font-size="112.0" fill="#000000" transform="matrix(1.00, 0.00, -0.00, -1.00, 788.1, 870.0)">,</text><text xml:space="preserve" font-family="Helvetica-Light" font-size="112.0" fill="#000000" transform="matrix(1.00, 0.00, -0.00, -1.00, 819.3, 870.0)"> </text><text xml:space="preserve" font-family="Helvetica-Light" font-size="112.0" fill="#000000" transform="matrix(1.00, 0.00, -0.00, -1.00, 850.4, 870.0)">s</text><text xml:space="preserve" font-family="Helvetica-Light" font-size="112.0" fill="#000000" transform="matrix(1.00, 0.00, -0.00, -1.00, 906.4, 870.0)">o</text><text xml:space="preserve" font-family="Helvetica-Light" font-size="112.0" fill="#000000" transform="matrix(1.00, 0.00, -0.00, -1.00, 968.7, 870.0)"> </text><text xml:space="preserve" font-family="Helvetica-Light" font-size="112.0" fill="#000000" transform="matrix(1.00, 0.00, -0.00, -1.00, 999.8, 870.0)">w</text><text xml:space="preserve" font-family="Helvetica-Light" font-size="112.0" fill="#000000" transform="matrix(1.00, 0.00, -0.00, -1.00, 1080.7, 870.0)">h</text><text xml:space="preserve" font-family="Helvetica-Light" font-size="112.0" fill="#000000" transform="matrix(1.00, 0.00, -0.00, -1.00, 1143.0, 870.0)">a</text><text xml:space="preserve" font-family="Helvetica-Light" font-size="112.0" fill="#000000" transform="matrix(1.00, 0.00, -0.00, -1.00, 1205.2, 870.0)">t</text><text xml:space="preserve" font-family="Helvetica-Light" font-size="112.0" fill="#000000" transform="matrix(1.00, 0.00, -0.00, -1.00, 1236.4, 870.0)">?</text><text xml:space="preserve" font-family="Helvetica-Light" font-size="37.5" fill="#000000" transform="matrix(1.00, 0.00, -0.00, -1.00, 564.5, 741.7)">•</text><text xml:space="preserve" font-family="Helvetica-Bold" font-weight="bold" font-size="50.0" fill="#000000" transform="matrix(1.00, 0.00, -0.00, -1.00, 613.0, 738.0)">I</text><text xml:space="preserve" font-family="Helvetica-Bold" font-weight="bold" font-size="50.0" fill="#000000" transform="matrix(1.00, 0.00, -0.00, -1.00, 626.9, 738.0)">d</text><text xml:space="preserve" font-family="Helvetica-Bold" font-weight="bold" font-size="50.0" fill="#000000" transform="matrix(1.00, 0.00, -0.00, -1.00, 657.4, 738.0)">e</text><text xml:space="preserve" font-family="Helvetica-Bold" font-weight="bold" font-size="50.0" fill="#000000" transform="matrix(1.00, 0.00, -0.00, -1.00, 685.2, 738.0)">n</text><text xml:space="preserve" font-family="Helvetica-Bold" font-weight="bold" font-size="50.0" fill="#000000" transform="matrix(1.00, 0.00, -0.00, -1.00, 715.8, 738.0)">t</text><text xml:space="preserve" font-family="Helvetica-Bold" font-weight="bold" font-size="50.0" fill="#000000" transform="matrix(1.00, 0.00, -0.00, -1.00, 732.4, 738.0)">i</text><text xml:space="preserve" font-family="Helvetica-Bold" font-weight="bold" font-size="50.0" fill="#000000" transform="matrix(1.00, 0.00, -0.00, -1.00, 746.3, 738.0)">f</text><text xml:space="preserve" font-family="Helvetica-Bold" font-weight="bold" font-size="50.0" fill="#000000" transform="matrix(1.00, 0.00, -0.00, -1.00, 762.9, 738.0)">y</text><text xml:space="preserve" font-family="Helvetica-Light" font-size="50.0" fill="#000000" transform="matrix(1.00, 0.00, -0.00, -1.00, 790.8, 738.0)"> </text><text xml:space="preserve" font-family="Helvetica-Light" font-size="50.0" fill="#000000" transform="matrix(1.00, 0.00, -0.00, -1.00, 804.7, 738.0)">i</text><text xml:space="preserve" font-family="Helvetica-Light" font-size="50.0" fill="#000000" transform="matrix(1.00, 0.00, -0.00, -1.00, 815.8, 738.0)">f</text><text xml:space="preserve" font-family="Helvetica-Light" font-size="50.0" fill="#000000" transform="matrix(1.00, 0.00, -0.00, -1.00, 829.7, 738.0)"> </text><text xml:space="preserve" font-family="Helvetica-Light" font-size="50.0" fill="#000000" transform="matrix(1.00, 0.00, -0.00, -1.00, 843.6, 738.0)">t</text><text xml:space="preserve" font-family="Helvetica-Light" font-size="50.0" fill="#000000" transform="matrix(1.00, 0.00, -0.00, -1.00, 857.5, 738.0)">h</text><text xml:space="preserve" font-family="Helvetica-Light" font-size="50.0" fill="#000000" transform="matrix(1.00, 0.00, -0.00, -1.00, 885.3, 738.0)">e</text><text xml:space="preserve" font-family="Helvetica-Light" font-size="50.0" fill="#000000" transform="matrix(1.00, 0.00, -0.00, -1.00, 913.1, 738.0)">r</text><text xml:space="preserve" font-family="Helvetica-Light" font-size="50.0" fill="#000000" transform="matrix(1.00, 0.00, -0.00, -1.00, 928.8, 738.0)">e</text><text xml:space="preserve" font-family="Helvetica-Light" font-size="50.0" fill="#000000" transform="matrix(1.00, 0.00, -0.00, -1.00, 956.6, 738.0)">’</text><text xml:space="preserve" font-family="Helvetica-Light" font-size="50.0" fill="#000000" transform="matrix(1.00, 0.00, -0.00, -1.00, 964.0, 738.0)">s</text><text xml:space="preserve" font-family="Helvetica-Light" font-size="50.0" fill="#000000" transform="matrix(1.00, 0.00, -0.00, -1.00, 989.0, 738.0)"> </text><text xml:space="preserve" font-family="Helvetica-Light" font-size="50.0" fill="#000000" transform="matrix(1.00, 0.00, -0.00, -1.00, 1002.9, 738.0)">a</text><text xml:space="preserve" font-family="Helvetica-Light" font-size="50.0" fill="#000000" transform="matrix(1.00, 0.00, -0.00, -1.00, 1030.7, 738.0)"> </text><text xml:space="preserve" font-family="Helvetica-Light" font-size="50.0" fill="#000000" transform="matrix(1.00, 0.00, -0.00, -1.00, 1044.6, 738.0)">p</text><text xml:space="preserve" font-family="Helvetica-Light" font-size="50.0" fill="#000000" transform="matrix(1.00, 0.00, -0.00, -1.00, 1075.2, 738.0)">o</text><text xml:space="preserve" font-family="Helvetica-Light" font-size="50.0" fill="#000000" transform="matrix(1.00, 0.00, -0.00, -1.00, 1103.0, 738.0)">s</text><text xml:space="preserve" font-family="Helvetica-Light" font-size="50.0" fill="#000000" transform="matrix(1.00, 0.00, -0.00, -1.00, 1128.0, 738.0)">s</text><text xml:space="preserve" font-family="Helvetica-Light" font-size="50.0" fill="#000000" transform="matrix(1.00, 0.00, -0.00, -1.00, 1153.0, 738.0)">i</text><text xml:space="preserve" font-family="Helvetica-Light" font-size="50.0" fill="#000000" transform="matrix(1.00, 0.00, -0.00, -1.00, 1164.1, 738.0)">b</text><text xml:space="preserve" font-family="Helvetica-Light" font-size="50.0" fill="#000000" transform="matrix(1.00, 0.00, -0.00, -1.00, 1194.6, 738.0)">l</text><text xml:space="preserve" font-family="Helvetica-Light" font-size="50.0" fill="#000000" transform="matrix(1.00, 0.00, -0.00, -1.00, 1205.7, 738.0)">e</text><text xml:space="preserve" font-family="Helvetica-Light" font-size="50.0" fill="#000000" transform="matrix(1.00, 0.00, -0.00, -1.00, 1233.5, 738.0)"> </text><text xml:space="preserve" font-family="Helvetica-Light" font-size="50.0" fill="#000000" transform="matrix(1.00, 0.00, -0.00, -1.00, 1247.4, 738.0)">l</text><text xml:space="preserve" font-family="Helvetica-Light" font-size="50.0" fill="#000000" transform="matrix(1.00, 0.00, -0.00, -1.00, 1258.5, 738.0)">e</text><text xml:space="preserve" font-family="Helvetica-Light" font-size="50.0" fill="#000000" transform="matrix(1.00, 0.00, -0.00, -1.00, 1286.3, 738.0)">a</text><text xml:space="preserve" font-family="Helvetica-Light" font-size="50.0" fill="#000000" transform="matrix(1.00, 0.00, -0.00, -1.00, 1314.1, 738.0)">k</text><text xml:space="preserve" font-family="Helvetica-Light" font-size="50.0" fill="#000000" transform="matrix(1.00, 0.00, -0.00, -1.00, 1339.1, 738.0)">.</text><text xml:space="preserve" font-family="Helvetica-Light" font-size="50.0" fill="#000000" transform="matrix(1.00, 0.00, -0.00, -1.00, 1353.0, 738.0)"> </text><text xml:space="preserve" font-family="Helvetica-LightOblique" font-style="italic" font-size="37.5" fill="#000000" transform="matrix(1.00, 0.00, -0.00, -1.00, 599.5, 651.7)">•</text><text xml:space="preserve" font-family="Helvetica-LightOblique" font-style="italic" font-size="50.0" fill="#000000" transform="matrix(1.00, 0.00, -0.00, -1.00, 648.0, 648.0)">T</text><text xml:space="preserve" font-family="Helvetica-LightOblique" font-style="italic" font-size="50.0" fill="#000000" transform="matrix(1.00, 0.00, -0.00, -1.00, 671.2, 648.0)">r</text><text xml:space="preserve" font-family="Helvetica-LightOblique" font-style="italic" font-size="50.0" fill="#000000" transform="matrix(1.00, 0.00, -0.00, -1.00, 688.8, 648.0)">y</text><text xml:space="preserve" font-family="Helvetica-LightOblique" font-style="italic" font-size="50.0" fill="#000000" transform="matrix(1.00, 0.00, -0.00, -1.00, 713.8, 648.0)"> </text><text xml:space="preserve" font-family="Helvetica-LightOblique" font-style="italic" font-size="50.0" fill="#000000" transform="matrix(1.00, 0.00, -0.00, -1.00, 727.6, 648.0)">t</text><text xml:space="preserve" font-family="Helvetica-LightOblique" font-style="italic" font-size="50.0" fill="#000000" transform="matrix(1.00, 0.00, -0.00, -1.00, 741.5, 648.0)">o</text><text xml:space="preserve" font-family="Helvetica-LightOblique" font-style="italic" font-size="50.0" fill="#000000" transform="matrix(1.00, 0.00, -0.00, -1.00, 769.4, 648.0)">p</text><text xml:space="preserve" font-family="Helvetica-LightOblique" font-style="italic" font-size="50.0" fill="#000000" transform="matrix(1.00, 0.00, -0.00, -1.00, 799.9, 648.0)">,</text><text xml:space="preserve" font-family="Helvetica-LightOblique" font-style="italic" font-size="50.0" fill="#000000" transform="matrix(1.00, 0.00, -0.00, -1.00, 813.8, 648.0)"> </text><text xml:space="preserve" font-family="Helvetica-LightOblique" font-style="italic" font-size="50.0" fill="#000000" transform="matrix(1.00, 0.00, -0.00, -1.00, 827.7, 648.0)">a</text><text xml:space="preserve" font-family="Helvetica-LightOblique" font-style="italic" font-size="50.0" fill="#000000" transform="matrix(1.00, 0.00, -0.00, -1.00, 855.5, 648.0)">c</text><text xml:space="preserve" font-family="Helvetica-LightOblique" font-style="italic" font-size="50.0" fill="#000000" transform="matrix(1.00, 0.00, -0.00, -1.00, 883.3, 648.0)">t</text><text xml:space="preserve" font-family="Helvetica-LightOblique" font-style="italic" font-size="50.0" fill="#000000" transform="matrix(1.00, 0.00, -0.00, -1.00, 897.2, 648.0)">i</text><text xml:space="preserve" font-family="Helvetica-LightOblique" font-style="italic" font-size="50.0" fill="#000000" transform="matrix(1.00, 0.00, -0.00, -1.00, 908.3, 648.0)">v</text><text xml:space="preserve" font-family="Helvetica-LightOblique" font-style="italic" font-size="50.0" fill="#000000" transform="matrix(1.00, 0.00, -0.00, -1.00, 933.3, 648.0)">i</text><text xml:space="preserve" font-family="Helvetica-LightOblique" font-style="italic" font-size="50.0" fill="#000000" transform="matrix(1.00, 0.00, -0.00, -1.00, 944.4, 648.0)">t</text><text xml:space="preserve" font-family="Helvetica-LightOblique" font-style="italic" font-size="50.0" fill="#000000" transform="matrix(1.00, 0.00, -0.00, -1.00, 958.3, 648.0)">y</text><text xml:space="preserve" font-family="Helvetica-LightOblique" font-style="italic" font-size="50.0" fill="#000000" transform="matrix(1.00, 0.00, -0.00, -1.00, 983.3, 648.0)"> </text><text xml:space="preserve" font-family="Helvetica-LightOblique" font-style="italic" font-size="50.0" fill="#000000" transform="matrix(1.00, 0.00, -0.00, -1.00, 997.2, 648.0)">m</text><text xml:space="preserve" font-family="Helvetica-LightOblique" font-style="italic" font-size="50.0" fill="#000000" transform="matrix(1.00, 0.00, -0.00, -1.00, 1038.8, 648.0)">o</text><text xml:space="preserve" font-family="Helvetica-LightOblique" font-style="italic" font-size="50.0" fill="#000000" transform="matrix(1.00, 0.00, -0.00, -1.00, 1066.7, 648.0)">n</text><text xml:space="preserve" font-family="Helvetica-LightOblique" font-style="italic" font-size="50.0" fill="#000000" transform="matrix(1.00, 0.00, -0.00, -1.00, 1094.5, 648.0)">i</text><text xml:space="preserve" font-family="Helvetica-LightOblique" font-style="italic" font-size="50.0" fill="#000000" transform="matrix(1.00, 0.00, -0.00, -1.00, 1105.6, 648.0)">t</text><text xml:space="preserve" font-family="Helvetica-LightOblique" font-style="italic" font-size="50.0" fill="#000000" transform="matrix(1.00, 0.00, -0.00, -1.00, 1119.5, 648.0)">o</text><text xml:space="preserve" font-family="Helvetica-LightOblique" font-style="italic" font-size="50.0" fill="#000000" transform="matrix(1.00, 0.00, -0.00, -1.00, 1147.2, 648.0)">r</text><text xml:space="preserve" font-family="Helvetica-LightOblique" font-style="italic" font-size="50.0" fill="#000000" transform="matrix(1.00, 0.00, -0.00, -1.00, 1159.3, 648.0)">,</text><text xml:space="preserve" font-family="Helvetica-LightOblique" font-style="italic" font-size="50.0" fill="#000000" transform="matrix(1.00, 0.00, -0.00, -1.00, 1173.2, 648.0)"> </text><text xml:space="preserve" font-family="Helvetica-LightOblique" font-style="italic" font-size="50.0" fill="#000000" transform="matrix(1.00, 0.00, -0.00, -1.00, 1187.1, 648.0)">t</text><text xml:space="preserve" font-family="Helvetica-LightOblique" font-style="italic" font-size="50.0" fill="#000000" transform="matrix(1.00, 0.00, -0.00, -1.00, 1201.0, 648.0)">a</text><text xml:space="preserve" font-family="Helvetica-LightOblique" font-style="italic" font-size="50.0" fill="#000000" transform="matrix(1.00, 0.00, -0.00, -1.00, 1228.8, 648.0)">s</text><text xml:space="preserve" font-family="Helvetica-LightOblique" font-style="italic" font-size="50.0" fill="#000000" transform="matrix(1.00, 0.00, -0.00, -1.00, 1253.8, 648.0)">k</text><text xml:space="preserve" font-family="Helvetica-LightOblique" font-style="italic" font-size="50.0" fill="#000000" transform="matrix(1.00, 0.00, -0.00, -1.00, 1278.8, 648.0)"> </text><text xml:space="preserve" font-family="Helvetica-LightOblique" font-style="italic" font-size="50.0" fill="#000000" transform="matrix(1.00, 0.00, -0.00, -1.00, 1292.7, 648.0)">m</text><text xml:space="preserve" font-family="Helvetica-LightOblique" font-style="italic" font-size="50.0" fill="#000000" transform="matrix(1.00, 0.00, -0.00, -1.00, 1334.3, 648.0)">a</text><text xml:space="preserve" font-family="Helvetica-LightOblique" font-style="italic" font-size="50.0" fill="#000000" transform="matrix(1.00, 0.00, -0.00, -1.00, 1362.1, 648.0)">n</text><text xml:space="preserve" font-family="Helvetica-LightOblique" font-style="italic" font-size="50.0" fill="#000000" transform="matrix(1.00, 0.00, -0.00, -1.00, 1389.9, 648.0)">a</text><text xml:space="preserve" font-family="Helvetica-LightOblique" font-style="italic" font-size="50.0" fill="#000000" transform="matrix(1.00, 0.00, -0.00, -1.00, 1417.7, 648.0)">g</text><text xml:space="preserve" font-family="Helvetica-LightOblique" font-style="italic" font-size="50.0" fill="#000000" transform="matrix(1.00, 0.00, -0.00, -1.00, 1448.3, 648.0)">e</text><text xml:space="preserve" font-family="Helvetica-LightOblique" font-style="italic" font-size="50.0" fill="#000000" transform="matrix(1.00, 0.00, -0.00, -1.00, 1476.1, 648.0)">r</text><text xml:space="preserve" font-family="Helvetica-LightOblique" font-style="italic" font-size="50.0" fill="#000000" transform="matrix(1.00, 0.00, -0.00, -1.00, 1492.7, 648.0)"> </text><text xml:space="preserve" font-family="Helvetica-Light" font-size="37.5" fill="#000000" transform="matrix(1.00, 0.00, -0.00, -1.00, 564.5, 532.7)">•</text><text xml:space="preserve" font-family="Helvetica-Bold" font-weight="bold" font-size="50.0" fill="#000000" transform="matrix(1.00, 0.00, -0.00, -1.00, 613.0, 529.0)">C</text><text xml:space="preserve" font-family="Helvetica-Bold" font-weight="bold" font-size="50.0" fill="#000000" transform="matrix(1.00, 0.00, -0.00, -1.00, 649.1, 529.0)">o</text><text xml:space="preserve" font-family="Helvetica-Bold" font-weight="bold" font-size="50.0" fill="#000000" transform="matrix(1.00, 0.00, -0.00, -1.00, 679.7, 529.0)">n</text><text xml:space="preserve" font-family="Helvetica-Bold" font-weight="bold" font-size="50.0" fill="#000000" transform="matrix(1.00, 0.00, -0.00, -1.00, 710.2, 529.0)">ﬁ</text><text xml:space="preserve" font-family="Helvetica-Bold" font-weight="bold" font-size="50.0" fill="#000000" transform="matrix(1.00, 0.00, -0.00, -1.00, 740.8, 529.0)">r</text><text xml:space="preserve" font-family="Helvetica-Bold" font-weight="bold" font-size="50.0" fill="#000000" transform="matrix(1.00, 0.00, -0.00, -1.00, 760.2, 529.0)">m</text><text xml:space="preserve" font-family="Helvetica-Light" font-size="50.0" fill="#000000" transform="matrix(1.00, 0.00, -0.00, -1.00, 804.7, 529.0)"> </text><text xml:space="preserve" font-family="Helvetica-Light" font-size="50.0" fill="#000000" transform="matrix(1.00, 0.00, -0.00, -1.00, 818.6, 529.0)">t</text><text xml:space="preserve" font-family="Helvetica-Light" font-size="50.0" fill="#000000" transform="matrix(1.00, 0.00, -0.00, -1.00, 832.5, 529.0)">h</text><text xml:space="preserve" font-family="Helvetica-Light" font-size="50.0" fill="#000000" transform="matrix(1.00, 0.00, -0.00, -1.00, 860.3, 529.0)">e</text><text xml:space="preserve" font-family="Helvetica-Light" font-size="50.0" fill="#000000" transform="matrix(1.00, 0.00, -0.00, -1.00, 888.1, 529.0)"> </text><text xml:space="preserve" font-family="Helvetica-Light" font-size="50.0" fill="#000000" transform="matrix(1.00, 0.00, -0.00, -1.00, 902.0, 529.0)">c</text><text xml:space="preserve" font-family="Helvetica-Light" font-size="50.0" fill="#000000" transform="matrix(1.00, 0.00, -0.00, -1.00, 929.8, 529.0)">a</text><text xml:space="preserve" font-family="Helvetica-Light" font-size="50.0" fill="#000000" transform="matrix(1.00, 0.00, -0.00, -1.00, 957.6, 529.0)">u</text><text xml:space="preserve" font-family="Helvetica-Light" font-size="50.0" fill="#000000" transform="matrix(1.00, 0.00, -0.00, -1.00, 985.4, 529.0)">s</text><text xml:space="preserve" font-family="Helvetica-Light" font-size="50.0" fill="#000000" transform="matrix(1.00, 0.00, -0.00, -1.00, 1010.4, 529.0)">e</text><text xml:space="preserve" font-family="Helvetica-Light" font-size="50.0" fill="#000000" transform="matrix(1.00, 0.00, -0.00, -1.00, 1038.2, 529.0)"> </text><text xml:space="preserve" font-family="Helvetica-Light" font-size="50.0" fill="#000000" transform="matrix(1.00, 0.00, -0.00, -1.00, 1052.1, 529.0)">o</text><text xml:space="preserve" font-family="Helvetica-Light" font-size="50.0" fill="#000000" transform="matrix(1.00, 0.00, -0.00, -1.00, 1079.9, 529.0)">f</text><text xml:space="preserve" font-family="Helvetica-Light" font-size="50.0" fill="#000000" transform="matrix(1.00, 0.00, -0.00, -1.00, 1093.8, 529.0)"> </text><text xml:space="preserve" font-family="Helvetica-Light" font-size="50.0" fill="#000000" transform="matrix(1.00, 0.00, -0.00, -1.00, 1107.7, 529.0)">t</text><text xml:space="preserve" font-family="Helvetica-Light" font-size="50.0" fill="#000000" transform="matrix(1.00, 0.00, -0.00, -1.00, 1121.6, 529.0)">h</text><text xml:space="preserve" font-family="Helvetica-Light" font-size="50.0" fill="#000000" transform="matrix(1.00, 0.00, -0.00, -1.00, 1149.4, 529.0)">e</text><text xml:space="preserve" font-family="Helvetica-Light" font-size="50.0" fill="#000000" transform="matrix(1.00, 0.00, -0.00, -1.00, 1177.2, 529.0)"> </text><text xml:space="preserve" font-family="Helvetica-Light" font-size="50.0" fill="#000000" transform="matrix(1.00, 0.00, -0.00, -1.00, 1191.1, 529.0)">l</text><text xml:space="preserve" font-family="Helvetica-Light" font-size="50.0" fill="#000000" transform="matrix(1.00, 0.00, -0.00, -1.00, 1202.2, 529.0)">e</text><text xml:space="preserve" font-family="Helvetica-Light" font-size="50.0" fill="#000000" transform="matrix(1.00, 0.00, -0.00, -1.00, 1230.0, 529.0)">a</text><text xml:space="preserve" font-family="Helvetica-Light" font-size="50.0" fill="#000000" transform="matrix(1.00, 0.00, -0.00, -1.00, 1257.8, 529.0)">k</text><text xml:space="preserve" font-family="Helvetica-Light" font-size="50.0" fill="#000000" transform="matrix(1.00, 0.00, -0.00, -1.00, 1282.8, 529.0)">i</text><text xml:space="preserve" font-family="Helvetica-Light" font-size="50.0" fill="#000000" transform="matrix(1.00, 0.00, -0.00, -1.00, 1293.9, 529.0)">n</text><text xml:space="preserve" font-family="Helvetica-Light" font-size="50.0" fill="#000000" transform="matrix(1.00, 0.00, -0.00, -1.00, 1321.7, 529.0)">e</text><text xml:space="preserve" font-family="Helvetica-Light" font-size="50.0" fill="#000000" transform="matrix(1.00, 0.00, -0.00, -1.00, 1349.5, 529.0)">s</text><text xml:space="preserve" font-family="Helvetica-Light" font-size="50.0" fill="#000000" transform="matrix(1.00, 0.00, -0.00, -1.00, 1374.5, 529.0)">s</text><text xml:space="preserve" font-family="Helvetica-Light" font-size="50.0" fill="#000000" transform="matrix(1.00, 0.00, -0.00, -1.00, 1399.5, 529.0)">.</text><text xml:space="preserve" font-family="Helvetica-Light" font-size="50.0" fill="#000000" transform="matrix(1.00, 0.00, -0.00, -1.00, 1413.4, 529.0)"> </text><text xml:space="preserve" font-family="Helvetica-LightOblique" font-style="italic" font-size="37.5" fill="#000000" transform="matrix(1.00, 0.00, -0.00, -1.00, 599.5, 442.7)">•</text><text xml:space="preserve" font-family="Helvetica-LightOblique" font-style="italic" font-size="50.0" fill="#000000" transform="matrix(1.00, 0.00, -0.00, -1.00, 648.0, 439.0)">o</text><text xml:space="preserve" font-family="Helvetica-LightOblique" font-style="italic" font-size="50.0" fill="#000000" transform="matrix(1.00, 0.00, -0.00, -1.00, 675.8, 439.0)">b</text><text xml:space="preserve" font-family="Helvetica-LightOblique" font-style="italic" font-size="50.0" fill="#000000" transform="matrix(1.00, 0.00, -0.00, -1.00, 706.4, 439.0)">j</text><text xml:space="preserve" font-family="Helvetica-LightOblique" font-style="italic" font-size="50.0" fill="#000000" transform="matrix(1.00, 0.00, -0.00, -1.00, 717.5, 439.0)">g</text><text xml:space="preserve" font-family="Helvetica-LightOblique" font-style="italic" font-size="50.0" fill="#000000" transform="matrix(1.00, 0.00, -0.00, -1.00, 748.0, 439.0)">r</text><text xml:space="preserve" font-family="Helvetica-LightOblique" font-style="italic" font-size="50.0" fill="#000000" transform="matrix(1.00, 0.00, -0.00, -1.00, 764.6, 439.0)">a</text><text xml:space="preserve" font-family="Helvetica-LightOblique" font-style="italic" font-size="50.0" fill="#000000" transform="matrix(1.00, 0.00, -0.00, -1.00, 792.5, 439.0)">p</text><text xml:space="preserve" font-family="Helvetica-LightOblique" font-style="italic" font-size="50.0" fill="#000000" transform="matrix(1.00, 0.00, -0.00, -1.00, 823.0, 439.0)">h</text><text xml:space="preserve" font-family="Helvetica-LightOblique" font-style="italic" font-size="50.0" fill="#000000" transform="matrix(1.00, 0.00, -0.00, -1.00, 850.8, 439.0)"> </text><text xml:space="preserve" font-family="Helvetica-LightOblique" font-style="italic" font-size="50.0" fill="#000000" transform="matrix(1.00, 0.00, -0.00, -1.00, 864.7, 439.0)">(</text><text xml:space="preserve" font-family="Helvetica-LightOblique" font-style="italic" font-size="50.0" fill="#000000" transform="matrix(1.00, 0.00, -0.00, -1.00, 881.4, 439.0)">t</text><text xml:space="preserve" font-family="Helvetica-LightOblique" font-style="italic" font-size="50.0" fill="#000000" transform="matrix(1.00, 0.00, -0.00, -1.00, 895.2, 439.0)">h</text><text xml:space="preserve" font-family="Helvetica-LightOblique" font-style="italic" font-size="50.0" fill="#000000" transform="matrix(1.00, 0.00, -0.00, -1.00, 923.1, 439.0)">e</text><text xml:space="preserve" font-family="Helvetica-LightOblique" font-style="italic" font-size="50.0" fill="#000000" transform="matrix(1.00, 0.00, -0.00, -1.00, 950.9, 439.0)"> </text><text xml:space="preserve" font-family="Helvetica-LightOblique" font-style="italic" font-size="50.0" fill="#000000" transform="matrix(1.00, 0.00, -0.00, -1.00, 964.8, 439.0)">f</text><text xml:space="preserve" font-family="Helvetica-LightOblique" font-style="italic" font-size="50.0" fill="#000000" transform="matrix(1.00, 0.00, -0.00, -1.00, 978.7, 439.0)">o</text><text xml:space="preserve" font-family="Helvetica-LightOblique" font-style="italic" font-size="50.0" fill="#000000" transform="matrix(1.00, 0.00, -0.00, -1.00, 1006.5, 439.0)">c</text><text xml:space="preserve" font-family="Helvetica-LightOblique" font-style="italic" font-size="50.0" fill="#000000" transform="matrix(1.00, 0.00, -0.00, -1.00, 1034.2, 439.0)">u</text><text xml:space="preserve" font-family="Helvetica-LightOblique" font-style="italic" font-size="50.0" fill="#000000" transform="matrix(1.00, 0.00, -0.00, -1.00, 1062.1, 439.0)">s</text><text xml:space="preserve" font-family="Helvetica-LightOblique" font-style="italic" font-size="50.0" fill="#000000" transform="matrix(1.00, 0.00, -0.00, -1.00, 1087.1, 439.0)"> </text><text xml:space="preserve" font-family="Helvetica-LightOblique" font-style="italic" font-size="50.0" fill="#000000" transform="matrix(1.00, 0.00, -0.00, -1.00, 1101.0, 439.0)">o</text><text xml:space="preserve" font-family="Helvetica-LightOblique" font-style="italic" font-size="50.0" fill="#000000" transform="matrix(1.00, 0.00, -0.00, -1.00, 1128.8, 439.0)">f</text><text xml:space="preserve" font-family="Helvetica-LightOblique" font-style="italic" font-size="50.0" fill="#000000" transform="matrix(1.00, 0.00, -0.00, -1.00, 1142.7, 439.0)"> </text><text xml:space="preserve" font-family="Helvetica-LightOblique" font-style="italic" font-size="50.0" fill="#000000" transform="matrix(1.00, 0.00, -0.00, -1.00, 1156.5, 439.0)">t</text><text xml:space="preserve" font-family="Helvetica-LightOblique" font-style="italic" font-size="50.0" fill="#000000" transform="matrix(1.00, 0.00, -0.00, -1.00, 1170.5, 439.0)">h</text><text xml:space="preserve" font-family="Helvetica-LightOblique" font-style="italic" font-size="50.0" fill="#000000" transform="matrix(1.00, 0.00, -0.00, -1.00, 1198.2, 439.0)">i</text><text xml:space="preserve" font-family="Helvetica-LightOblique" font-style="italic" font-size="50.0" fill="#000000" transform="matrix(1.00, 0.00, -0.00, -1.00, 1209.3, 439.0)">s</text><text xml:space="preserve" font-family="Helvetica-LightOblique" font-style="italic" font-size="50.0" fill="#000000" transform="matrix(1.00, 0.00, -0.00, -1.00, 1234.3, 439.0)"> </text><text xml:space="preserve" font-family="Helvetica-LightOblique" font-style="italic" font-size="50.0" fill="#000000" transform="matrix(1.00, 0.00, -0.00, -1.00, 1248.2, 439.0)">t</text><text xml:space="preserve" font-family="Helvetica-LightOblique" font-style="italic" font-size="50.0" fill="#000000" transform="matrix(1.00, 0.00, -0.00, -1.00, 1262.2, 439.0)">a</text><text xml:space="preserve" font-family="Helvetica-LightOblique" font-style="italic" font-size="50.0" fill="#000000" transform="matrix(1.00, 0.00, -0.00, -1.00, 1289.9, 439.0)">l</text><text xml:space="preserve" font-family="Helvetica-LightOblique" font-style="italic" font-size="50.0" fill="#000000" transform="matrix(1.00, 0.00, -0.00, -1.00, 1301.0, 439.0)">k</text><text xml:space="preserve" font-family="Helvetica-LightOblique" font-style="italic" font-size="50.0" fill="#000000" transform="matrix(1.00, 0.00, -0.00, -1.00, 1326.0, 439.0)">!</text><text xml:space="preserve" font-family="Helvetica-LightOblique" font-style="italic" font-size="50.0" fill="#000000" transform="matrix(1.00, 0.00, -0.00, -1.00, 1342.7, 439.0)">)</text><text xml:space="preserve" font-family="Helvetica-LightOblique" font-style="italic" font-size="50.0" fill="#000000" transform="matrix(1.00, 0.00, -0.00, -1.00, 1359.3, 439.0)"> </text><text xml:space="preserve" font-family="Helvetica-Light" font-size="37.5" fill="#000000" transform="matrix(1.00, 0.00, -0.00, -1.00, 564.5, 323.7)">•</text><text xml:space="preserve" font-family="Helvetica-Bold" font-weight="bold" font-size="50.0" fill="#000000" transform="matrix(1.00, 0.00, -0.00, -1.00, 613.0, 320.0)">F</text><text xml:space="preserve" font-family="Helvetica-Bold" font-weight="bold" font-size="50.0" fill="#000000" transform="matrix(1.00, 0.00, -0.00, -1.00, 643.5, 320.0)">i</text><text xml:space="preserve" font-family="Helvetica-Bold" font-weight="bold" font-size="50.0" fill="#000000" transform="matrix(1.00, 0.00, -0.00, -1.00, 657.4, 320.0)">x</text><text xml:space="preserve" font-family="Helvetica-Light" font-size="50.0" fill="#000000" transform="matrix(1.00, 0.00, -0.00, -1.00, 685.2, 320.0)"> </text><text xml:space="preserve" font-family="Helvetica-Light" font-size="50.0" fill="#000000" transform="matrix(1.00, 0.00, -0.00, -1.00, 699.1, 320.0)">t</text><text xml:space="preserve" font-family="Helvetica-Light" font-size="50.0" fill="#000000" transform="matrix(1.00, 0.00, -0.00, -1.00, 713.0, 320.0)">h</text><text xml:space="preserve" font-family="Helvetica-Light" font-size="50.0" fill="#000000" transform="matrix(1.00, 0.00, -0.00, -1.00, 740.8, 320.0)">e</text><text xml:space="preserve" font-family="Helvetica-Light" font-size="50.0" fill="#000000" transform="matrix(1.00, 0.00, -0.00, -1.00, 768.6, 320.0)"> </text><text xml:space="preserve" font-family="Helvetica-Light" font-size="50.0" fill="#000000" transform="matrix(1.00, 0.00, -0.00, -1.00, 782.5, 320.0)">l</text><text xml:space="preserve" font-family="Helvetica-Light" font-size="50.0" fill="#000000" transform="matrix(1.00, 0.00, -0.00, -1.00, 793.6, 320.0)">e</text><text xml:space="preserve" font-family="Helvetica-Light" font-size="50.0" fill="#000000" transform="matrix(1.00, 0.00, -0.00, -1.00, 821.4, 320.0)">a</text><text xml:space="preserve" font-family="Helvetica-Light" font-size="50.0" fill="#000000" transform="matrix(1.00, 0.00, -0.00, -1.00, 849.2, 320.0)">k</text><text xml:space="preserve" font-family="Helvetica-Light" font-size="50.0" fill="#000000" transform="matrix(1.00, 0.00, -0.00, -1.00, 874.2, 320.0)">,</text><text xml:space="preserve" font-family="Helvetica-Light" font-size="50.0" fill="#000000" transform="matrix(1.00, 0.00, -0.00, -1.00, 888.1, 320.0)"> </text><text xml:space="preserve" font-family="Helvetica-Light" font-size="50.0" fill="#000000" transform="matrix(1.00, 0.00, -0.00, -1.00, 902.0, 320.0)">d</text><text xml:space="preserve" font-family="Helvetica-Light" font-size="50.0" fill="#000000" transform="matrix(1.00, 0.00, -0.00, -1.00, 932.6, 320.0)">a</text><text xml:space="preserve" font-family="Helvetica-Light" font-size="50.0" fill="#000000" transform="matrix(1.00, 0.00, -0.00, -1.00, 960.4, 320.0)">m</text><text xml:space="preserve" font-family="Helvetica-Light" font-size="50.0" fill="#000000" transform="matrix(1.00, 0.00, -0.00, -1.00, 1002.0, 320.0)">m</text><text xml:space="preserve" font-family="Helvetica-Light" font-size="50.0" fill="#000000" transform="matrix(1.00, 0.00, -0.00, -1.00, 1043.7, 320.0)">i</text><text xml:space="preserve" font-family="Helvetica-Light" font-size="50.0" fill="#000000" transform="matrix(1.00, 0.00, -0.00, -1.00, 1054.8, 320.0)">t</text><text xml:space="preserve" font-family="Helvetica-Light" font-size="50.0" fill="#000000" transform="matrix(1.00, 0.00, -0.00, -1.00, 1068.7, 320.0)">!</text><text xml:space="preserve" font-family="Helvetica-Light" font-size="50.0" fill="#000000" transform="matrix(1.00, 0.00, -0.00, -1.00, 1085.3, 320.0)"> </text><text xml:space="preserve" font-family="Helvetica-LightOblique" font-style="italic" font-size="37.5" fill="#000000" transform="matrix(1.00, 0.00, -0.00, -1.00, 599.5, 233.7)">•</text><text xml:space="preserve" font-family="Helvetica-LightOblique" font-style="italic" font-size="50.0" fill="#000000" transform="matrix(1.00, 0.00, -0.00, -1.00, 648.0, 230.0)">W</text><text xml:space="preserve" font-family="Helvetica-LightOblique" font-style="italic" font-size="50.0" fill="#000000" transform="matrix(1.00, 0.00, -0.00, -1.00, 691.5, 230.0)">r</text><text xml:space="preserve" font-family="Helvetica-LightOblique" font-style="italic" font-size="50.0" fill="#000000" transform="matrix(1.00, 0.00, -0.00, -1.00, 708.2, 230.0)">i</text><text xml:space="preserve" font-family="Helvetica-LightOblique" font-style="italic" font-size="50.0" fill="#000000" transform="matrix(1.00, 0.00, -0.00, -1.00, 719.3, 230.0)">t</text><text xml:space="preserve" font-family="Helvetica-LightOblique" font-style="italic" font-size="50.0" fill="#000000" transform="matrix(1.00, 0.00, -0.00, -1.00, 733.2, 230.0)">e</text><text xml:space="preserve" font-family="Helvetica-LightOblique" font-style="italic" font-size="50.0" fill="#000000" transform="matrix(1.00, 0.00, -0.00, -1.00, 761.0, 230.0)"> </text><text xml:space="preserve" font-family="Helvetica-LightOblique" font-style="italic" font-size="50.0" fill="#000000" transform="matrix(1.00, 0.00, -0.00, -1.00, 774.9, 230.0)">u</text><text xml:space="preserve" font-family="Helvetica-LightOblique" font-style="italic" font-size="50.0" fill="#000000" transform="matrix(1.00, 0.00, -0.00, -1.00, 802.7, 230.0)">n</text><text xml:space="preserve" font-family="Helvetica-LightOblique" font-style="italic" font-size="50.0" fill="#000000" transform="matrix(1.00, 0.00, -0.00, -1.00, 830.5, 230.0)">i</text><text xml:space="preserve" font-family="Helvetica-LightOblique" font-style="italic" font-size="50.0" fill="#000000" transform="matrix(1.00, 0.00, -0.00, -1.00, 841.6, 230.0)">t</text><text xml:space="preserve" font-family="Helvetica-LightOblique" font-style="italic" font-size="50.0" fill="#000000" transform="matrix(1.00, 0.00, -0.00, -1.00, 855.5, 230.0)"> </text><text xml:space="preserve" font-family="Helvetica-LightOblique" font-style="italic" font-size="50.0" fill="#000000" transform="matrix(1.00, 0.00, -0.00, -1.00, 869.4, 230.0)">t</text><text xml:space="preserve" font-family="Helvetica-LightOblique" font-style="italic" font-size="50.0" fill="#000000" transform="matrix(1.00, 0.00, -0.00, -1.00, 883.3, 230.0)">e</text><text xml:space="preserve" font-family="Helvetica-LightOblique" font-style="italic" font-size="50.0" fill="#000000" transform="matrix(1.00, 0.00, -0.00, -1.00, 911.1, 230.0)">s</text><text xml:space="preserve" font-family="Helvetica-LightOblique" font-style="italic" font-size="50.0" fill="#000000" transform="matrix(1.00, 0.00, -0.00, -1.00, 936.1, 230.0)">t</text><text xml:space="preserve" font-family="Helvetica-LightOblique" font-style="italic" font-size="50.0" fill="#000000" transform="matrix(1.00, 0.00, -0.00, -1.00, 950.0, 230.0)">s</text><text xml:space="preserve" font-family="Helvetica-LightOblique" font-style="italic" font-size="50.0" fill="#000000" transform="matrix(1.00, 0.00, -0.00, -1.00, 975.0, 230.0)">,</text><text xml:space="preserve" font-family="Helvetica-LightOblique" font-style="italic" font-size="50.0" fill="#000000" transform="matrix(1.00, 0.00, -0.00, -1.00, 988.9, 230.0)"> </text><text xml:space="preserve" font-family="Helvetica-LightOblique" font-style="italic" font-size="50.0" fill="#000000" transform="matrix(1.00, 0.00, -0.00, -1.00, 1002.8, 230.0)">c</text><text xml:space="preserve" font-family="Helvetica-LightOblique" font-style="italic" font-size="50.0" fill="#000000" transform="matrix(1.00, 0.00, -0.00, -1.00, 1030.6, 230.0)">o</text><text xml:space="preserve" font-family="Helvetica-LightOblique" font-style="italic" font-size="50.0" fill="#000000" transform="matrix(1.00, 0.00, -0.00, -1.00, 1058.4, 230.0)">d</text><text xml:space="preserve" font-family="Helvetica-LightOblique" font-style="italic" font-size="50.0" fill="#000000" transform="matrix(1.00, 0.00, -0.00, -1.00, 1089.0, 230.0)">e</text><text xml:space="preserve" font-family="Helvetica-LightOblique" font-style="italic" font-size="50.0" fill="#000000" transform="matrix(1.00, 0.00, -0.00, -1.00, 1116.8, 230.0)"> </text><text xml:space="preserve" font-family="Helvetica-LightOblique" font-style="italic" font-size="50.0" fill="#000000" transform="matrix(1.00, 0.00, -0.00, -1.00, 1130.7, 230.0)">c</text><text xml:space="preserve" font-family="Helvetica-LightOblique" font-style="italic" font-size="50.0" fill="#000000" transform="matrix(1.00, 0.00, -0.00, -1.00, 1158.5, 230.0)">h</text><text xml:space="preserve" font-family="Helvetica-LightOblique" font-style="italic" font-size="50.0" fill="#000000" transform="matrix(1.00, 0.00, -0.00, -1.00, 1186.2, 230.0)">a</text><text xml:space="preserve" font-family="Helvetica-LightOblique" font-style="italic" font-size="50.0" fill="#000000" transform="matrix(1.00, 0.00, -0.00, -1.00, 1214.0, 230.0)">n</text><text xml:space="preserve" font-family="Helvetica-LightOblique" font-style="italic" font-size="50.0" fill="#000000" transform="matrix(1.00, 0.00, -0.00, -1.00, 1241.8, 230.0)">g</text><text xml:space="preserve" font-family="Helvetica-LightOblique" font-style="italic" font-size="50.0" fill="#000000" transform="matrix(1.00, 0.00, -0.00, -1.00, 1272.4, 230.0)">e</text><text xml:space="preserve" font-family="Helvetica-LightOblique" font-style="italic" font-size="50.0" fill="#000000" transform="matrix(1.00, 0.00, -0.00, -1.00, 1300.2, 230.0)">s</text><text xml:space="preserve" font-family="Helvetica-LightOblique" font-style="italic" font-size="50.0" fill="#000000" transform="matrix(1.00, 0.00, -0.00, -1.00, 1325.2, 230.0)">,</text><text xml:space="preserve" font-family="Helvetica-LightOblique" font-style="italic" font-size="50.0" fill="#000000" transform="matrix(1.00, 0.00, -0.00, -1.00, 1339.1, 230.0)"> </text><text xml:space="preserve" font-family="Helvetica-LightOblique" font-style="italic" font-size="50.0" fill="#000000" transform="matrix(1.00, 0.00, -0.00, -1.00, 1353.0, 230.0)">u</text><text xml:space="preserve" font-family="Helvetica-LightOblique" font-style="italic" font-size="50.0" fill="#000000" transform="matrix(1.00, 0.00, -0.00, -1.00, 1380.8, 230.0)">p</text><text xml:space="preserve" font-family="Helvetica-LightOblique" font-style="italic" font-size="50.0" fill="#000000" transform="matrix(1.00, 0.00, -0.00, -1.00, 1411.3, 230.0)">g</text><text xml:space="preserve" font-family="Helvetica-LightOblique" font-style="italic" font-size="50.0" fill="#000000" transform="matrix(1.00, 0.00, -0.00, -1.00, 1441.9, 230.0)">r</text><text xml:space="preserve" font-family="Helvetica-LightOblique" font-style="italic" font-size="50.0" fill="#000000" transform="matrix(1.00, 0.00, -0.00, -1.00, 1458.5, 230.0)">a</text><text xml:space="preserve" font-family="Helvetica-LightOblique" font-style="italic" font-size="50.0" fill="#000000" transform="matrix(1.00, 0.00, -0.00, -1.00, 1486.3, 230.0)">d</text><text xml:space="preserve" font-family="Helvetica-LightOblique" font-style="italic" font-size="50.0" fill="#000000" transform="matrix(1.00, 0.00, -0.00, -1.00, 1516.9, 230.0)">e</text><text xml:space="preserve" font-family="Helvetica-LightOblique" font-style="italic" font-size="50.0" fill="#000000" transform="matrix(1.00, 0.00, -0.00, -1.00, 1544.7, 230.0)"> </text><text xml:space="preserve" font-family="Helvetica-LightOblique" font-style="italic" font-size="50.0" fill="#000000" transform="matrix(1.00, 0.00, -0.00, -1.00, 648.0, 170.0)">d</text><text xml:space="preserve" font-family="Helvetica-LightOblique" font-style="italic" font-size="50.0" fill="#000000" transform="matrix(1.00, 0.00, -0.00, -1.00, 678.5, 170.0)">e</text><text xml:space="preserve" font-family="Helvetica-LightOblique" font-style="italic" font-size="50.0" fill="#000000" transform="matrix(1.00, 0.00, -0.00, -1.00, 706.4, 170.0)">p</text><text xml:space="preserve" font-family="Helvetica-LightOblique" font-style="italic" font-size="50.0" fill="#000000" transform="matrix(1.00, 0.00, -0.00, -1.00, 736.9, 170.0)">e</text><text xml:space="preserve" font-family="Helvetica-LightOblique" font-style="italic" font-size="50.0" fill="#000000" transform="matrix(1.00, 0.00, -0.00, -1.00, 764.7, 170.0)">n</text><text xml:space="preserve" font-family="Helvetica-LightOblique" font-style="italic" font-size="50.0" fill="#000000" transform="matrix(1.00, 0.00, -0.00, -1.00, 792.5, 170.0)">d</text><text xml:space="preserve" font-family="Helvetica-LightOblique" font-style="italic" font-size="50.0" fill="#000000" transform="matrix(1.00, 0.00, -0.00, -1.00, 823.0, 170.0)">e</text><text xml:space="preserve" font-family="Helvetica-LightOblique" font-style="italic" font-size="50.0" fill="#000000" transform="matrix(1.00, 0.00, -0.00, -1.00, 850.9, 170.0)">n</text><text xml:space="preserve" font-family="Helvetica-LightOblique" font-style="italic" font-size="50.0" fill="#000000" transform="matrix(1.00, 0.00, -0.00, -1.00, 878.7, 170.0)">c</text><text xml:space="preserve" font-family="Helvetica-LightOblique" font-style="italic" font-size="50.0" fill="#000000" transform="matrix(1.00, 0.00, -0.00, -1.00, 906.5, 170.0)">i</text><text xml:space="preserve" font-family="Helvetica-LightOblique" font-style="italic" font-size="50.0" fill="#000000" transform="matrix(1.00, 0.00, -0.00, -1.00, 917.6, 170.0)">e</text><text xml:space="preserve" font-family="Helvetica-LightOblique" font-style="italic" font-size="50.0" fill="#000000" transform="matrix(1.00, 0.00, -0.00, -1.00, 945.4, 170.0)">s</text><text xml:space="preserve" font-family="Helvetica-LightOblique" font-style="italic" font-size="50.0" fill="#000000" transform="matrix(1.00, 0.00, -0.00, -1.00, 970.4, 170.0)">,</text><text xml:space="preserve" font-family="Helvetica-LightOblique" font-style="italic" font-size="50.0" fill="#000000" transform="matrix(1.00, 0.00, -0.00, -1.00, 984.2, 170.0)"> </text><text xml:space="preserve" font-family="Helvetica-LightOblique" font-style="italic" font-size="50.0" fill="#000000" transform="matrix(1.00, 0.00, -0.00, -1.00, 998.2, 170.0)">e</text><text xml:space="preserve" font-family="Helvetica-LightOblique" font-style="italic" font-size="50.0" fill="#000000" transform="matrix(1.00, 0.00, -0.00, -1.00, 1026.0, 170.0)">t</text><text xml:space="preserve" font-family="Helvetica-LightOblique" font-style="italic" font-size="50.0" fill="#000000" transform="matrix(1.00, 0.00, -0.00, -1.00, 1039.8, 170.0)">c</text><text xml:space="preserve" font-family="Helvetica-LightOblique" font-style="italic" font-size="50.0" fill="#000000" transform="matrix(1.00, 0.00, -0.00, -1.00, 1067.7, 170.0)">.</text><image xlink:href="../../3128BA05-F0FF-4D52-AC79-69A9573EF698/assets/C20F2E18BC48C0212A363CF5B622278C.png" width="128.00" height="128.00" transform="matrix(1.00, 0.00, -0.00, -1.00, 411.0, 767.0)"></image><image xlink:href="../../3128BA05-F0FF-4D52-AC79-69A9573EF698/assets/C0C46F6CF34D443C479F95A0610EA307.png" width="128.00" height="128.00" transform="matrix(1.00, 0.00, -0.00, -1.00, 411.0, 357.0)"></image><image xlink:href="../../3128BA05-F0FF-4D52-AC79-69A9573EF698/assets/36479DEDE0410BBC257788DACCE09FE6.png" width="128.00" height="128.00" transform="matrix(1.00, 0.00, -0.00, -1.00, 411.0, 562.0)"></image></g></svg>