<?xml version="1.0" encoding="UTF-8" standalone="no"?><svg xmlns="http://www.w3.org/2000/svg" xmlns:xlink="http://www.w3.org/1999/xlink" clip-rule="evenodd" stroke-miterlimit="4.00" viewBox="0 0 1920 1080"><desc>SVG generated by Keynote</desc><defs></defs><g transform="matrix(1.00, 0.00, -0.00, -1.00, 0.0, 1080.0)"><path d="M 0.0 1080.0 L 1920.0 1080.0 L 1920.0 0.0 L 0.0 0.0 Z M 0.0 1080.0 " fill="#FEFFFF"></path><text xml:space="preserve" font-family="Helvetica-Light" font-size="112.0" fill="#000000" transform="matrix(1.00, 0.00, -0.00, -1.00, 388.0, 677.0)"> </text><text xml:space="preserve" font-family="Helvetica-Light" font-size="112.0" fill="#000000" transform="matrix(1.00, 0.00, -0.00, -1.00, 419.1, 677.0)">P</text><text xml:space="preserve" font-family="Helvetica-Light" font-size="112.0" fill="#000000" transform="matrix(1.00, 0.00, -0.00, -1.00, 487.6, 677.0)">y</text><text xml:space="preserve" font-family="Helvetica-Light" font-size="112.0" fill="#000000" transform="matrix(1.00, 0.00, -0.00, -1.00, 543.6, 677.0)">t</text><text xml:space="preserve" font-family="Helvetica-Light" font-size="112.0" fill="#000000" transform="matrix(1.00, 0.00, -0.00, -1.00, 574.7, 677.0)">h</text><text xml:space="preserve" font-family="Helvetica-Light" font-size="112.0" fill="#000000" transform="matrix(1.00, 0.00, -0.00, -1.00, 637.0, 677.0)">o</text><text xml:space="preserve" font-family="Helvetica-Light" font-size="112.0" fill="#000000" transform="matrix(1.00, 0.00, -0.00, -1.00, 699.2, 677.0)">n</text><text xml:space="preserve" font-family="Helvetica-Light" font-size="112.0" fill="#000000" transform="matrix(1.00, 0.00, -0.00, -1.00, 761.5, 677.0)"> </text><text xml:space="preserve" font-family="Helvetica-Light" font-size="112.0" fill="#000000" transform="matrix(1.00, 0.00, -0.00, -1.00, 792.7, 677.0)">M</text><text xml:space="preserve" font-family="Helvetica-Light" font-size="112.0" fill="#000000" transform="matrix(1.00, 0.00, -0.00, -1.00, 886.0, 677.0)">e</text><text xml:space="preserve" font-family="Helvetica-Light" font-size="112.0" fill="#000000" transform="matrix(1.00, 0.00, -0.00, -1.00, 948.2, 677.0)">m</text><text xml:space="preserve" font-family="Helvetica-Light" font-size="112.0" fill="#000000" transform="matrix(1.00, 0.00, -0.00, -1.00, 1041.5, 677.0)">o</text><text xml:space="preserve" font-family="Helvetica-Light" font-size="112.0" fill="#000000" transform="matrix(1.00, 0.00, -0.00, -1.00, 1103.8, 677.0)">r</text><text xml:space="preserve" font-family="Helvetica-Light" font-size="112.0" fill="#000000" transform="matrix(1.00, 0.00, -0.00, -1.00, 1143.1, 677.0)">y</text><text xml:space="preserve" font-family="Helvetica-Light" font-size="112.0" fill="#000000" transform="matrix(1.00, 0.00, -0.00, -1.00, 1199.1, 677.0)"> </text><text xml:space="preserve" font-family="Helvetica-Light" font-size="112.0" fill="#000000" transform="matrix(1.00, 0.00, -0.00, -1.00, 1230.2, 677.0)">L</text><text xml:space="preserve" font-family="Helvetica-Light" font-size="112.0" fill="#000000" transform="matrix(1.00, 0.00, -0.00, -1.00, 1292.5, 677.0)">e</text><text xml:space="preserve" font-family="Helvetica-Light" font-size="112.0" fill="#000000" transform="matrix(1.00, 0.00, -0.00, -1.00, 1354.8, 677.0)">a</text><text xml:space="preserve" font-family="Helvetica-Light" font-size="112.0" fill="#000000" transform="matrix(1.00, 0.00, -0.00, -1.00, 1417.1, 677.0)">k</text><text xml:space="preserve" font-family="Helvetica-Bold" font-weight="bold" font-size="44.0" fill="#000000" transform="matrix(1.00, 0.00, -0.00, -1.00, 830.0, 96.0)">D</text><text xml:space="preserve" font-family="Helvetica-Bold" font-weight="bold" font-size="44.0" fill="#000000" transform="matrix(1.00, 0.00, -0.00, -1.00, 861.8, 96.0)">a</text><text xml:space="preserve" font-family="Helvetica-Bold" font-weight="bold" font-size="44.0" fill="#000000" transform="matrix(1.00, 0.00, -0.00, -1.00, 886.3, 96.0)">v</text><text xml:space="preserve" font-family="Helvetica-Bold" font-weight="bold" font-size="44.0" fill="#000000" transform="matrix(1.00, 0.00, -0.00, -1.00, 910.7, 96.0)">e</text><text xml:space="preserve" font-family="Helvetica-Bold" font-weight="bold" font-size="44.0" fill="#000000" transform="matrix(1.00, 0.00, -0.00, -1.00, 935.2, 96.0)"> </text><text xml:space="preserve" font-family="Helvetica-Bold" font-weight="bold" font-size="44.0" fill="#000000" transform="matrix(1.00, 0.00, -0.00, -1.00, 947.4, 96.0)">V</text><text xml:space="preserve" font-family="Helvetica-Bold" font-weight="bold" font-size="44.0" fill="#000000" transform="matrix(1.00, 0.00, -0.00, -1.00, 973.5, 96.0)">o</text><text xml:space="preserve" font-family="Helvetica-Bold" font-weight="bold" font-size="44.0" fill="#000000" transform="matrix(1.00, 0.00, -0.00, -1.00, 1000.4, 96.0)">u</text><text xml:space="preserve" font-family="Helvetica-Bold" font-weight="bold" font-size="44.0" fill="#000000" transform="matrix(1.00, 0.00, -0.00, -1.00, 1027.3, 96.0)">t</text><text xml:space="preserve" font-family="Helvetica-Bold" font-weight="bold" font-size="44.0" fill="#000000" transform="matrix(1.00, 0.00, -0.00, -1.00, 1041.9, 96.0)">i</text><text xml:space="preserve" font-family="Helvetica-Bold" font-weight="bold" font-size="44.0" fill="#000000" transform="matrix(1.00, 0.00, -0.00, -1.00, 1054.1, 96.0)">l</text><text xml:space="preserve" font-family="Helvetica-Bold" font-weight="bold" font-size="44.0" fill="#000000" transform="matrix(1.00, 0.00, -0.00, -1.00, 1066.4, 96.0)">a</text><text xml:space="preserve" font-family="Helvetica-Light" font-size="44.0" fill="#000000" transform="matrix(1.00, 0.00, -0.00, -1.00, 698.0, 43.0)">h</text><text xml:space="preserve" font-family="Helvetica-Light" font-size="44.0" fill="#000000" transform="matrix(1.00, 0.00, -0.00, -1.00, 722.5, 43.0)">t</text><text xml:space="preserve" font-family="Helvetica-Light" font-size="44.0" fill="#000000" transform="matrix(1.00, 0.00, -0.00, -1.00, 734.7, 43.0)">t</text><text xml:space="preserve" font-family="Helvetica-Light" font-size="44.0" fill="#000000" transform="matrix(1.00, 0.00, -0.00, -1.00, 746.9, 43.0)">p</text><text xml:space="preserve" font-family="Helvetica-Light" font-size="44.0" fill="#000000" transform="matrix(1.00, 0.00, -0.00, -1.00, 773.8, 43.0)">s</text><text xml:space="preserve" font-family="Helvetica-Light" font-size="44.0" fill="#000000" transform="matrix(1.00, 0.00, -0.00, -1.00, 795.8, 43.0)">:</text><text xml:space="preserve" font-family="Helvetica-Light" font-size="44.0" fill="#000000" transform="matrix(1.00, 0.00, -0.00, -1.00, 808.0, 43.0)">/</text><text xml:space="preserve" font-family="Helvetica-Light" font-size="44.0" fill="#000000" transform="matrix(1.00, 0.00, -0.00, -1.00, 820.3, 43.0)">/</text><text xml:space="preserve" font-family="Helvetica-Light" font-size="44.0" fill="#000000" transform="matrix(1.00, 0.00, -0.00, -1.00, 832.5, 43.0)">g</text><text xml:space="preserve" font-family="Helvetica-Light" font-size="44.0" fill="#000000" transform="matrix(1.00, 0.00, -0.00, -1.00, 859.4, 43.0)">i</text><text xml:space="preserve" font-family="Helvetica-Light" font-size="44.0" fill="#000000" transform="matrix(1.00, 0.00, -0.00, -1.00, 869.2, 43.0)">t</text><text xml:space="preserve" font-family="Helvetica-Light" font-size="44.0" fill="#000000" transform="matrix(1.00, 0.00, -0.00, -1.00, 881.4, 43.0)">h</text><text xml:space="preserve" font-family="Helvetica-Light" font-size="44.0" fill="#000000" transform="matrix(1.00, 0.00, -0.00, -1.00, 905.9, 43.0)">u</text><text xml:space="preserve" font-family="Helvetica-Light" font-size="44.0" fill="#000000" transform="matrix(1.00, 0.00, -0.00, -1.00, 930.3, 43.0)">b</text><text xml:space="preserve" font-family="Helvetica-Light" font-size="44.0" fill="#000000" transform="matrix(1.00, 0.00, -0.00, -1.00, 957.2, 43.0)">.</text><text xml:space="preserve" font-family="Helvetica-Light" font-size="44.0" fill="#000000" transform="matrix(1.00, 0.00, -0.00, -1.00, 969.4, 43.0)">c</text><text xml:space="preserve" font-family="Helvetica-Light" font-size="44.0" fill="#000000" transform="matrix(1.00, 0.00, -0.00, -1.00, 993.9, 43.0)">o</text><text xml:space="preserve" font-family="Helvetica-Light" font-size="44.0" fill="#000000" transform="matrix(1.00, 0.00, -0.00, -1.00, 1018.4, 43.0)">m</text><text xml:space="preserve" font-family="Helvetica-Light" font-size="44.0" fill="#000000" transform="matrix(1.00, 0.00, -0.00, -1.00, 1055.0, 43.0)">/</text><text xml:space="preserve" font-family="Helvetica-Light" font-size="44.0" fill="#000000" transform="matrix(1.00, 0.00, -0.00, -1.00, 1067.2, 43.0)">v</text><text xml:space="preserve" font-family="Helvetica-Light" font-size="44.0" fill="#000000" transform="matrix(1.00, 0.00, -0.00, -1.00, 1089.2, 43.0)">o</text><text xml:space="preserve" font-family="Helvetica-Light" font-size="44.0" fill="#000000" transform="matrix(1.00, 0.00, -0.00, -1.00, 1113.7, 43.0)">u</text><text xml:space="preserve" font-family="Helvetica-Light" font-size="44.0" fill="#000000" transform="matrix(1.00, 0.00, -0.00, -1.00, 1138.2, 43.0)">t</text><text xml:space="preserve" font-family="Helvetica-Light" font-size="44.0" fill="#000000" transform="matrix(1.00, 0.00, -0.00, -1.00, 1150.4, 43.0)">i</text><text xml:space="preserve" font-family="Helvetica-Light" font-size="44.0" fill="#000000" transform="matrix(1.00, 0.00, -0.00, -1.00, 1160.2, 43.0)">l</text><text xml:space="preserve" font-family="Helvetica-Light" font-size="44.0" fill="#000000" transform="matrix(1.00, 0.00, -0.00, -1.00, 1169.9, 43.0)">a</text><text xml:space="preserve" font-family="Helvetica-Light" font-size="44.0" fill="#000000" transform="matrix(1.00, 0.00, -0.00, -1.00, 1194.4, 43.0)">d</text><text xml:space="preserve" font-family="Helvetica-Light" font-size="44.0" fill="#000000" transform="matrix(1.00, 0.00, -0.00, -1.00, 1221.3, 43.0)"> </text><g><clipPath id="clip-0"><path d="M 697.4 37.9 L 1221.6 37.9 L 1221.6 42.1 L 697.4 42.1 Z M 697.4 37.9 "></path></clipPath><g clip-path="url(#clip-0)"><path d="M 317.7 104.8 L 841.0 104.8 " fill="none" stroke="#000000" stroke-width="2.20" stroke-miterlimit="0.00" transform="matrix(1.00, 0.00, 0.00, -1.00, 380.6, 144.8)"></path></g></g><image xlink:href="70B95AFC6589B0C428D165540655324B.png" width="75.00" height="75.00" transform="matrix(1.00, 0.00, -0.00, -0.99, 1478.0, 745.0)"></image><text xml:space="preserve" font-family="Helvetica-Light" font-size="48.0" fill="#000000" transform="matrix(1.00, 0.00, -0.00, -1.00, 683.0, 378.0)">B</text><text xml:space="preserve" font-family="Helvetica-Light" font-size="48.0" fill="#000000" transform="matrix(1.00, 0.00, -0.00, -1.00, 715.0, 378.0)">u</text><text xml:space="preserve" font-family="Helvetica-Light" font-size="48.0" fill="#000000" transform="matrix(1.00, 0.00, -0.00, -1.00, 741.7, 378.0)">r</text><text xml:space="preserve" font-family="Helvetica-Light" font-size="48.0" fill="#000000" transform="matrix(1.00, 0.00, -0.00, -1.00, 757.7, 378.0)">l</text><text xml:space="preserve" font-family="Helvetica-Light" font-size="48.0" fill="#000000" transform="matrix(1.00, 0.00, -0.00, -1.00, 768.3, 378.0)">i</text><text xml:space="preserve" font-family="Helvetica-Light" font-size="48.0" fill="#000000" transform="matrix(1.00, 0.00, -0.00, -1.00, 779.0, 378.0)">n</text><text xml:space="preserve" font-family="Helvetica-Light" font-size="48.0" fill="#000000" transform="matrix(1.00, 0.00, -0.00, -1.00, 805.7, 378.0)">g</text><text xml:space="preserve" font-family="Helvetica-Light" font-size="48.0" fill="#000000" transform="matrix(1.00, 0.00, -0.00, -1.00, 835.0, 378.0)">t</text><text xml:space="preserve" font-family="Helvetica-Light" font-size="48.0" fill="#000000" transform="matrix(1.00, 0.00, -0.00, -1.00, 848.4, 378.0)">o</text><text xml:space="preserve" font-family="Helvetica-Light" font-size="48.0" fill="#000000" transform="matrix(1.00, 0.00, -0.00, -1.00, 875.0, 378.0)">n</text><text xml:space="preserve" font-family="Helvetica-Light" font-size="48.0" fill="#000000" transform="matrix(1.00, 0.00, -0.00, -1.00, 901.7, 378.0)"> </text><text xml:space="preserve" font-family="Helvetica-Light" font-size="48.0" fill="#000000" transform="matrix(1.00, 0.00, -0.00, -1.00, 915.1, 378.0)">P</text><text xml:space="preserve" font-family="Helvetica-Light" font-size="48.0" fill="#000000" transform="matrix(1.00, 0.00, -0.00, -1.00, 944.4, 378.0)">y</text><text xml:space="preserve" font-family="Helvetica-Light" font-size="48.0" fill="#000000" transform="matrix(1.00, 0.00, -0.00, -1.00, 968.4, 378.0)">t</text><text xml:space="preserve" font-family="Helvetica-Light" font-size="48.0" fill="#000000" transform="matrix(1.00, 0.00, -0.00, -1.00, 981.8, 378.0)">h</text><text xml:space="preserve" font-family="Helvetica-Light" font-size="48.0" fill="#000000" transform="matrix(1.00, 0.00, -0.00, -1.00, 1008.4, 378.0)">o</text><text xml:space="preserve" font-family="Helvetica-Light" font-size="48.0" fill="#000000" transform="matrix(1.00, 0.00, -0.00, -1.00, 1035.1, 378.0)">n</text><text xml:space="preserve" font-family="Helvetica-Light" font-size="48.0" fill="#000000" transform="matrix(1.00, 0.00, -0.00, -1.00, 1061.8, 378.0)"> </text><text xml:space="preserve" font-family="Helvetica-Light" font-size="48.0" fill="#000000" transform="matrix(1.00, 0.00, -0.00, -1.00, 1075.2, 378.0)">M</text><text xml:space="preserve" font-family="Helvetica-Light" font-size="48.0" fill="#000000" transform="matrix(1.00, 0.00, -0.00, -1.00, 1115.1, 378.0)">e</text><text xml:space="preserve" font-family="Helvetica-Light" font-size="48.0" fill="#000000" transform="matrix(1.00, 0.00, -0.00, -1.00, 1141.8, 378.0)">e</text><text xml:space="preserve" font-family="Helvetica-Light" font-size="48.0" fill="#000000" transform="matrix(1.00, 0.00, -0.00, -1.00, 1168.5, 378.0)">t</text><text xml:space="preserve" font-family="Helvetica-Light" font-size="48.0" fill="#000000" transform="matrix(1.00, 0.00, -0.00, -1.00, 1181.9, 378.0)">u</text><text xml:space="preserve" font-family="Helvetica-Light" font-size="48.0" fill="#000000" transform="matrix(1.00, 0.00, -0.00, -1.00, 1208.6, 378.0)">p</text><text xml:space="preserve" font-family="Helvetica-Light" font-size="48.0" fill="#000000" transform="matrix(1.00, 0.00, -0.00, -1.00, 1237.9, 378.0)"> </text><text xml:space="preserve" font-family="Helvetica-Light" font-size="48.0" fill="#000000" transform="matrix(1.00, 0.00, -0.00, -1.00, 1251.2, 378.0)"> </text><text xml:space="preserve" font-family="Helvetica-LightOblique" font-style="italic" font-size="48.0" fill="#000000" transform="matrix(1.00, 0.00, -0.00, -1.00, 748.0, 320.0)">1</text><text xml:space="preserve" font-family="Helvetica-LightOblique" font-style="italic" font-size="48.0" fill="#000000" transform="matrix(1.00, 0.00, -0.00, -1.00, 774.7, 320.0)">3</text><text xml:space="preserve" font-family="Helvetica-LightOblique" font-style="italic" font-size="48.0" fill="#000000" transform="matrix(1.00, 0.00, -0.00, -1.00, 801.4, 320.0)"> </text><text xml:space="preserve" font-family="Helvetica-LightOblique" font-style="italic" font-size="48.0" fill="#000000" transform="matrix(1.00, 0.00, -0.00, -1.00, 814.7, 320.0)">S</text><text xml:space="preserve" font-family="Helvetica-LightOblique" font-style="italic" font-size="48.0" fill="#000000" transform="matrix(1.00, 0.00, -0.00, -1.00, 844.0, 320.0)">e</text><text xml:space="preserve" font-family="Helvetica-LightOblique" font-style="italic" font-size="48.0" fill="#000000" transform="matrix(1.00, 0.00, -0.00, -1.00, 870.7, 320.0)">p</text><text xml:space="preserve" font-family="Helvetica-LightOblique" font-style="italic" font-size="48.0" fill="#000000" transform="matrix(1.00, 0.00, -0.00, -1.00, 900.1, 320.0)">t</text><text xml:space="preserve" font-family="Helvetica-LightOblique" font-style="italic" font-size="48.0" fill="#000000" transform="matrix(1.00, 0.00, -0.00, -1.00, 913.4, 320.0)">e</text><text xml:space="preserve" font-family="Helvetica-LightOblique" font-style="italic" font-size="48.0" fill="#000000" transform="matrix(1.00, 0.00, -0.00, -1.00, 940.1, 320.0)">m</text><text xml:space="preserve" font-family="Helvetica-LightOblique" font-style="italic" font-size="48.0" fill="#000000" transform="matrix(1.00, 0.00, -0.00, -1.00, 980.1, 320.0)">b</text><text xml:space="preserve" font-family="Helvetica-LightOblique" font-style="italic" font-size="48.0" fill="#000000" transform="matrix(1.00, 0.00, -0.00, -1.00, 1009.4, 320.0)">e</text><text xml:space="preserve" font-family="Helvetica-LightOblique" font-style="italic" font-size="48.0" fill="#000000" transform="matrix(1.00, 0.00, -0.00, -1.00, 1036.1, 320.0)">r</text><text xml:space="preserve" font-family="Helvetica-LightOblique" font-style="italic" font-size="48.0" fill="#000000" transform="matrix(1.00, 0.00, -0.00, -1.00, 1052.1, 320.0)"> </text><text xml:space="preserve" font-family="Helvetica-LightOblique" font-style="italic" font-size="48.0" fill="#000000" transform="matrix(1.00, 0.00, -0.00, -1.00, 1065.4, 320.0)">2</text><text xml:space="preserve" font-family="Helvetica-LightOblique" font-style="italic" font-size="48.0" fill="#000000" transform="matrix(1.00, 0.00, -0.00, -1.00, 1092.1, 320.0)">0</text><text xml:space="preserve" font-family="Helvetica-LightOblique" font-style="italic" font-size="48.0" fill="#000000" transform="matrix(1.00, 0.00, -0.00, -1.00, 1118.8, 320.0)">1</text><text xml:space="preserve" font-family="Helvetica-LightOblique" font-style="italic" font-size="48.0" fill="#000000" transform="matrix(1.00, 0.00, -0.00, -1.00, 1145.5, 320.0)">6</text><image xlink:href="F5A566D6474F86807F3AB377BCC2181F.png" width="180.00" height="152.00" transform="matrix(1.00, 0.00, -0.00, -1.00, 870.0, 616.0)"></image></g></svg>