<?xml version="1.0" encoding="UTF-8" standalone="no"?><svg xmlns="http://www.w3.org/2000/svg" xmlns:xlink="http://www.w3.org/1999/xlink" clip-rule="evenodd" stroke-miterlimit="4.00" viewBox="0 0 1920 1080"><desc>SVG generated by Keynote</desc><defs></defs><g transform="matrix(1.00, 0.00, -0.00, -1.00, 0.0, 1080.0)"><path d="M 0.0 1080.0 L 1920.0 1080.0 L 1920.0 0.0 L 0.0 0.0 Z M 0.0 1080.0 " fill="#FEFFFF"></path><image xlink:href="322D38DC03AF07E57CDC202FF540E2D9.png" width="647.00" height="967.00" transform="matrix(1.00, 0.00, -0.00, -1.00, 955.9, 1023.7)" opacity="0.70"></image><g><clipPath id="clip-1"><path d="M 984.0 1010.0 L 1575.0 1010.0 L 1575.0 98.0 L 984.0 98.0 Z M 983.9 1009.7 "></path></clipPath><g clip-path="url(#clip-1)"><image xlink:href="EAF58A37C80B2E9229B892161A031413.jpeg" width="576.00" height="769.00" transform="matrix(1.19, 0.00, -0.00, -1.18, 893.0, 950.0)"></image></g></g><text xml:space="preserve" font-family="Helvetica-Light" font-size="84.0" fill="#000000" transform="matrix(1.00, 0.00, -0.00, -1.00, 385.0, 693.0)">F</text><text xml:space="preserve" font-family="Helvetica-Light" font-size="84.0" fill="#000000" transform="matrix(1.00, 0.00, -0.00, -1.00, 431.7, 693.0)">i</text><text xml:space="preserve" font-family="Helvetica-Light" font-size="84.0" fill="#000000" transform="matrix(1.00, 0.00, -0.00, -1.00, 450.4, 693.0)">r</text><text xml:space="preserve" font-family="Helvetica-Light" font-size="84.0" fill="#000000" transform="matrix(1.00, 0.00, -0.00, -1.00, 478.3, 693.0)">s</text><text xml:space="preserve" font-family="Helvetica-Light" font-size="84.0" fill="#000000" transform="matrix(1.00, 0.00, -0.00, -1.00, 520.3, 693.0)">t</text><text xml:space="preserve" font-family="Helvetica-Light" font-size="84.0" fill="#000000" transform="matrix(1.00, 0.00, -0.00, -1.00, 543.7, 693.0)"> </text><text xml:space="preserve" font-family="Helvetica-Light" font-size="84.0" fill="#000000" transform="matrix(1.00, 0.00, -0.00, -1.00, 567.0, 693.0)">a</text><text xml:space="preserve" font-family="Helvetica-Light" font-size="84.0" fill="#000000" transform="matrix(1.00, 0.00, -0.00, -1.00, 613.7, 693.0)"> </text><text xml:space="preserve" font-family="Helvetica-Light" font-size="84.0" fill="#000000" transform="matrix(1.00, 0.00, -0.00, -1.00, 637.1, 693.0)">P</text><text xml:space="preserve" font-family="Helvetica-Light" font-size="84.0" fill="#000000" transform="matrix(1.00, 0.00, -0.00, -1.00, 688.4, 693.0)">i</text><text xml:space="preserve" font-family="Helvetica-Light" font-size="84.0" fill="#000000" transform="matrix(1.00, 0.00, -0.00, -1.00, 707.1, 693.0)">c</text><text xml:space="preserve" font-family="Helvetica-Light" font-size="84.0" fill="#000000" transform="matrix(1.00, 0.00, -0.00, -1.00, 753.8, 693.0)">t</text><text xml:space="preserve" font-family="Helvetica-Light" font-size="84.0" fill="#000000" transform="matrix(1.00, 0.00, -0.00, -1.00, 777.1, 693.0)">u</text><text xml:space="preserve" font-family="Helvetica-Light" font-size="84.0" fill="#000000" transform="matrix(1.00, 0.00, -0.00, -1.00, 823.8, 693.0)">r</text><text xml:space="preserve" font-family="Helvetica-Light" font-size="84.0" fill="#000000" transform="matrix(1.00, 0.00, -0.00, -1.00, 850.3, 693.0)">e</text><text xml:space="preserve" font-family="Helvetica-Light" font-size="84.0" fill="#000000" transform="matrix(1.00, 0.00, -0.00, -1.00, 897.0, 693.0)"> </text><g><clipPath id="clip-2"><path d="M 330.1 573.3 L 951.5 573.3 L 951.5 1004.1 L 330.1 1004.1 Z M 330.1 573.3 "></path></clipPath><g clip-path="url(#clip-2)"><text xml:space="preserve" font-family="Helvetica-Light" font-size="84.0" fill="#000000" transform="matrix(1.00, 0.00, -0.00, -1.00, 447.0, 592.0)">o</text><text xml:space="preserve" font-family="Helvetica-Light" font-size="84.0" fill="#000000" transform="matrix(1.00, 0.00, -0.00, -1.00, 493.7, 592.0)">f</text><text xml:space="preserve" font-family="Helvetica-Light" font-size="84.0" fill="#000000" transform="matrix(1.00, 0.00, -0.00, -1.00, 517.1, 592.0)"> </text><text xml:space="preserve" font-family="Helvetica-Light" font-size="84.0" fill="#000000" transform="matrix(1.00, 0.00, -0.00, -1.00, 540.4, 592.0)">m</text><text xml:space="preserve" font-family="Helvetica-Light" font-size="84.0" fill="#000000" transform="matrix(1.00, 0.00, -0.00, -1.00, 610.4, 592.0)">y</text><text xml:space="preserve" font-family="Helvetica-Light" font-size="84.0" fill="#000000" transform="matrix(1.00, 0.00, -0.00, -1.00, 652.4, 592.0)"> </text><text xml:space="preserve" font-family="Helvetica-Light" font-size="84.0" fill="#000000" transform="matrix(1.00, 0.00, -0.00, -1.00, 675.7, 592.0)">D</text><text xml:space="preserve" font-family="Helvetica-Light" font-size="84.0" fill="#000000" transform="matrix(1.00, 0.00, -0.00, -1.00, 736.4, 592.0)">o</text><text xml:space="preserve" font-family="Helvetica-Light" font-size="84.0" fill="#000000" transform="matrix(1.00, 0.00, -0.00, -1.00, 783.1, 592.0)">g</text></g></g><text xml:space="preserve" font-family="Helvetica-Light" font-size="44.0" fill="#000000" transform="matrix(1.00, 0.00, -0.00, -1.00, 433.0, 504.0)">M</text><text xml:space="preserve" font-family="Helvetica-Light" font-size="44.0" fill="#000000" transform="matrix(1.00, 0.00, -0.00, -1.00, 469.7, 504.0)">a</text><text xml:space="preserve" font-family="Helvetica-Light" font-size="44.0" fill="#000000" transform="matrix(1.00, 0.00, -0.00, -1.00, 494.1, 504.0)">p</text><text xml:space="preserve" font-family="Helvetica-Light" font-size="44.0" fill="#000000" transform="matrix(1.00, 0.00, -0.00, -1.00, 521.0, 504.0)">l</text><text xml:space="preserve" font-family="Helvetica-Light" font-size="44.0" fill="#000000" transform="matrix(1.00, 0.00, -0.00, -1.00, 530.8, 504.0)">e</text><text xml:space="preserve" font-family="Helvetica-Light" font-size="44.0" fill="#000000" transform="matrix(1.00, 0.00, -0.00, -1.00, 555.2, 504.0)">,</text><text xml:space="preserve" font-family="Helvetica-Light" font-size="44.0" fill="#000000" transform="matrix(1.00, 0.00, -0.00, -1.00, 567.5, 504.0)"> </text><text xml:space="preserve" font-family="Helvetica-Light" font-size="44.0" fill="#000000" transform="matrix(1.00, 0.00, -0.00, -1.00, 579.7, 504.0)">a</text><text xml:space="preserve" font-family="Helvetica-Light" font-size="44.0" fill="#000000" transform="matrix(1.00, 0.00, -0.00, -1.00, 604.2, 504.0)">g</text><text xml:space="preserve" font-family="Helvetica-Light" font-size="44.0" fill="#000000" transform="matrix(1.00, 0.00, -0.00, -1.00, 631.0, 504.0)">e</text><text xml:space="preserve" font-family="Helvetica-Light" font-size="44.0" fill="#000000" transform="matrix(1.00, 0.00, -0.00, -1.00, 655.5, 504.0)"> </text><text xml:space="preserve" font-family="Helvetica-Light" font-size="44.0" fill="#000000" transform="matrix(1.00, 0.00, -0.00, -1.00, 667.7, 504.0)">2</text><text xml:space="preserve" font-family="Helvetica-Light" font-size="44.0" fill="#000000" transform="matrix(1.00, 0.00, -0.00, -1.00, 692.2, 504.0)"> </text><text xml:space="preserve" font-family="Helvetica-Light" font-size="44.0" fill="#000000" transform="matrix(1.00, 0.00, -0.00, -1.00, 704.4, 504.0)">m</text><text xml:space="preserve" font-family="Helvetica-Light" font-size="44.0" fill="#000000" transform="matrix(1.00, 0.00, -0.00, -1.00, 741.1, 504.0)">o</text><text xml:space="preserve" font-family="Helvetica-Light" font-size="44.0" fill="#000000" transform="matrix(1.00, 0.00, -0.00, -1.00, 765.6, 504.0)">n</text><text xml:space="preserve" font-family="Helvetica-Light" font-size="44.0" fill="#000000" transform="matrix(1.00, 0.00, -0.00, -1.00, 790.0, 504.0)">t</text><text xml:space="preserve" font-family="Helvetica-Light" font-size="44.0" fill="#000000" transform="matrix(1.00, 0.00, -0.00, -1.00, 802.2, 504.0)">h</text><text xml:space="preserve" font-family="Helvetica-Light" font-size="44.0" fill="#000000" transform="matrix(1.00, 0.00, -0.00, -1.00, 826.7, 504.0)">s</text><text xml:space="preserve" font-family="Helvetica-Light" font-size="44.0" fill="#000000" transform="matrix(1.00, 0.00, -0.00, -1.00, 848.7, 504.0)"> </text></g></svg>